<svg width="53" height="67" viewBox="0 0 53 67" fill="none" xmlns="http://www.w3.org/2000/svg">
<g clip-path="url(#clip0_9_212)">
<path d="M26.7 46.6667C25.8 46.6667 24.9667 46.3333 24.3333 45.7C23.6667 45.0333 23.3667 44.2667 23.3667 43.3333C23.3333 41.5 24.8 40.0333 26.6333 40C26.6667 40 26.6667 40 26.7 40C27.6333 40 28.4 40.3333 29.0667 40.9667C29.6667 41.6 30 42.4 30 43.3C30 44.2 29.6667 45 29.0333 45.6667C28.4 46.3333 27.6 46.6667 26.7 46.6667ZM23.7667 34.4667C23.7667 32.9667 24.1 31.6667 24.7333 30.6C25.3667 29.5 26.5 28.2667 28.0667 26.8667C29 26.0333 29.6667 25.3 30.1 24.6667C30.5333 24.0333 30.7333 23.3333 30.7333 22.5333C30.7333 21.5667 30.3667 20.7667 29.6667 20.0667C28.9667 19.4 28 19.0667 26.8333 19.0667C25.6 19.0667 24.3667 19.4 23.6333 20.0667C22.9333 20.7333 22.3 21.5667 22.3 23.3333H16.6667C16.6667 19.9667 18.2 17.5667 19.9 15.9667C21.7667 14.2667 24.1667 13.3333 26.6667 13.3333C28.6333 13.3333 30.3667 13.7333 31.9 14.5C33.4333 15.2667 34.5333 16.3333 35.4 17.7C36.2667 19.0667 36.6667 20.5667 36.6667 22.2C36.6667 23.8333 36.3333 25.2 35.6333 26.3667C34.9333 27.5333 34.0333 28.7333 32.6667 30C31.6 31 30.9 31.8667 30.5 32.5667C30.1 33.2667 29.9 34.2 29.9 35.2667V36.6667H23.7333V34.4667H23.7667ZM46.6667 27.3333C46.6667 15.2333 37.8333 6.66667 26.6667 6.66667C15.5 6.66667 6.66667 15.2333 6.66667 27.3333C6.66667 35.1333 13.1667 45.4667 26.6667 57.8C40.1667 45.4667 46.6667 35.1333 46.6667 27.3333ZM26.6667 0C40.6667 0 53.3333 10.7333 53.3333 27.3333C53.3333 38.4 44.4333 51.5 26.6667 66.6667C8.9 51.5 0 38.4 0 27.3333C0 10.7333 12.6667 0 26.6667 0Z" fill="#594A66"/>
</g>
<defs>
<clipPath id="clip0_9_212">
<rect width="53" height="67" fill="white"/>
</clipPath>
</defs>
</svg>
