<svg width="250" height="108" viewBox="0 0 250 108" fill="none" xmlns="http://www.w3.org/2000/svg">
<g clip-path="url(#clip0_16_30)">
<path d="M150.917 41.0059C156.009 41.0059 159.758 43.1342 161.624 46.0812V43.6745C161.624 42.8723 162.426 42.07 163.229 42.07H171.005C171.807 42.07 172.61 42.8723 172.61 43.6745V78.7596C172.61 79.5619 171.807 80.3641 171.005 80.3641H163.229C162.426 80.3641 161.624 79.5619 161.624 78.7596V75.2724C159.758 78.2194 155.73 80.3641 150.917 80.3641C141.274 80.3641 132.433 72.6038 132.433 60.554C132.171 48.5042 141.274 41.0059 150.917 41.0059ZM152.521 70.1807C157.613 70.1807 161.624 65.9076 161.624 60.8159C161.624 55.7243 157.613 51.4348 152.521 51.4348C147.43 51.4348 143.418 55.7243 143.418 60.8159C143.418 65.9076 147.168 70.1807 152.521 70.1807Z" fill="#1A1A1A"/>
<path d="M188.409 78.6942C188.409 79.4964 187.606 80.2986 186.804 80.2986H179.028C178.225 80.2986 177.423 79.4964 177.423 78.6942V27.3353C177.423 26.5331 178.225 25.7308 179.028 25.7308H186.804C187.606 25.7308 188.409 26.5331 188.409 27.3353V54.9221H191.077L199.656 43.1342C200.196 42.0701 200.999 41.8081 201.801 41.8081H210.102C211.706 41.8081 212.246 43.1342 211.166 44.4767L200.458 58.4093L212.77 77.7282C213.572 79.0707 213.048 80.4132 211.444 80.4132H202.865C201.801 80.4132 200.999 79.8729 200.458 79.0707L191.356 63.7629H188.409V78.6942Z" fill="#1A1A1A"/>
<path d="M250 59.4735V61.6182C250 62.4204 249.738 63.501 248.117 63.501H222.692C223.215 68.0524 226.965 71.2613 231.516 71.2613C235.003 71.2613 237.41 69.9188 239.555 67.774C240.095 67.2501 240.619 66.7099 241.421 67.5121L247.315 71.2613C248.117 71.8015 248.117 72.8657 247.593 73.668C244.646 77.6791 239.555 80.9044 231.254 80.9044C219.466 80.9044 211.444 72.3255 211.444 61.3562C211.444 50.3706 219.745 41.5298 231.254 41.5298C242.502 41.0059 250 49.8304 250 59.4735ZM239.014 56.5265C237.95 51.9751 234.463 49.8304 230.714 49.8304C226.965 49.8304 223.756 52.2534 222.413 56.5265H239.014Z" fill="#1A1A1A"/>
<path fill-rule="evenodd" clip-rule="evenodd" d="M107.842 37.7807V27.3517C107.842 26.5495 108.644 25.7473 109.447 25.7473H117.207C118.009 25.7473 118.811 26.5495 118.811 27.3517V37.7807H130.828C131.631 37.7807 132.433 38.5829 132.433 39.3851V45.4427C132.433 46.245 131.631 47.0472 130.828 47.0472H118.811V56.1664V60.5541V60.816C118.811 65.875 122.511 70.1317 127.816 70.1808C127.832 70.1808 127.849 70.1808 127.865 70.1808C127.881 70.1808 127.898 70.1808 127.914 70.1808V70.1972C128.684 70.2626 129.42 71.0321 129.42 71.7852V78.7433C129.42 79.5128 128.684 80.2823 127.914 80.3478V80.3642H126.31C116.667 80.3642 107.842 72.6038 107.842 60.5541V47.0472H107.236H104.027C103.225 47.0472 102.423 46.245 102.423 45.4427V39.3851C102.423 38.5829 103.225 37.7807 104.027 37.7807H107.842Z" fill="#1A1A1A"/>
<path d="M74.9836 0.010498H32.1382C29.1912 0.010498 26.7845 2.41718 26.7845 5.36413V21.4414C26.7845 24.372 24.3615 26.795 21.4309 26.795H5.35363C2.42305 26.795 0.016372 29.1854 0 32.1323V101.795C0.016372 104.726 2.42305 107.132 5.35363 107.132H48.1991C51.146 107.132 53.5527 104.726 53.5527 101.779V85.7014C53.5527 82.7544 55.9758 80.3478 58.9227 80.3478H74.9836C77.9306 80.3478 80.3373 77.9411 80.3373 74.9941V5.36413C80.3373 2.41718 77.9306 0.010498 74.9836 0.010498V0.010498ZM32.1382 80.3478C29.1912 80.3478 26.7845 77.9411 26.7845 74.9941V32.1487C26.7845 29.2017 29.1912 26.795 32.1382 26.795H48.1991C51.146 26.795 53.5527 29.2017 53.5527 32.1487V74.9941C53.5527 77.9411 51.146 80.3478 48.1991 80.3478H32.1382Z" fill="#FFCD00"/>
</g>
<defs>
<clipPath id="clip0_16_30">
<rect width="250" height="107.143" fill="white"/>
</clipPath>
</defs>
</svg>
