<svg width="80" height="80" viewBox="0 0 80 80" fill="none" xmlns="http://www.w3.org/2000/svg">
<g clip-path="url(#clip0_7_209)">
<path d="M77.1666 8.62333L60.7 0.700002C59.7694 0.251857 58.7225 0.104153 57.7042 0.277347C56.686 0.45054 55.7467 0.936059 55.0166 1.66667L23.4833 30.4333L9.74999 20.0067C9.1304 19.5367 8.36587 19.2984 7.58899 19.3331C6.81211 19.3678 6.07187 19.6733 5.49665 20.1967L1.08999 24.2033C0.746588 24.5155 0.472157 24.8959 0.284264 25.3203C0.0963705 25.7446 -0.000845127 26.2035 -0.00115891 26.6676C-0.00147269 27.1317 0.0951223 27.5907 0.282442 28.0153C0.469761 28.4399 0.743677 28.8207 1.08665 29.1333L12.9967 40L1.08665 50.8667C0.743677 51.1793 0.469761 51.5601 0.282442 51.9847C0.0951223 52.4093 -0.00147269 52.8683 -0.00115891 53.3324C-0.000845127 53.7965 0.0963705 54.2554 0.284264 54.6797C0.472157 55.1041 0.746588 55.4845 1.08999 55.7967L5.49999 59.8C6.0752 60.3233 6.81544 60.6288 7.59232 60.6635C8.3692 60.6982 9.13373 60.46 9.75332 59.99L23.4867 49.5633L55.02 78.33C55.7493 79.0608 56.688 79.5464 57.7057 79.7196C58.7235 79.8929 59.77 79.745 60.7 79.2967L77.1733 71.3733C78.0208 70.9643 78.7357 70.3243 79.2357 69.5271C79.7358 68.7299 80.0007 67.8077 80 66.8667V13.13C80.0001 12.1882 79.7342 11.2656 79.2329 10.4683C78.7317 9.67096 78.0154 9.03144 77.1666 8.62333ZM60.0133 58.16L36.0867 40L60.0133 21.84V58.16Z" fill="#594A66"/>
</g>
<defs>
<clipPath id="clip0_7_209">
<rect width="80" height="80" fill="white"/>
</clipPath>
</defs>
</svg>
